<svg xmlns="http://www.w3.org/2000/svg" viewBox="0 0 122 131.92"><defs><style>.cls-1,.cls-2{fill:#fff;}.cls-1{stroke:#2753ff;stroke-width:14px;}.cls-1,.cls-2,.cls-3{stroke-linecap:round;stroke-miterlimit:10;}.cls-2,.cls-3{stroke:#343a40;stroke-width:12px;}.cls-3{fill:none;}</style></defs><g id="Layer_2" data-name="Layer 2"><g id="Layer_1-2" data-name="Layer 1"><path class="cls-1" d="M115,84.47v-37a21.93,21.93,0,0,0-11-19L72,9.94A21.94,21.94,0,0,0,50,9.94L18,28.45a21.93,21.93,0,0,0-11,19v37a21.93,21.93,0,0,0,11,19L50,122A21.94,21.94,0,0,0,72,122L104,103.47A21.93,21.93,0,0,0,115,84.47Z"/><path class="cls-2" d="M31.86,82.77l10-11.18a8.26,8.26,0,0,0,0-10.78l-10-11.18"/><line class="cls-3" x1="56.82" y1="83.4" x2="89.24" y2="83.4"/></g></g></svg>