<svg xmlns="http://www.w3.org/2000/svg" viewBox="0 0 756.38 132.82"><defs><style>.cls-1,.cls-2{fill:none;stroke-linecap:round;stroke-miterlimit:10;}.cls-1{stroke:#2753ff;stroke-width:14px;}.cls-2{stroke:#fff;stroke-width:12px;}.cls-3{font-size:107.42px;fill:#fff;font-family:FredokaOne-Regular, Fredoka One;}.cls-4{letter-spacing:-0.02em;}.cls-5{letter-spacing:0em;}.cls-6{letter-spacing:-0.03em;}</style></defs><g id="Layer_2" data-name="Layer 2"><g id="Layer_1-2" data-name="Layer 1"><path class="cls-1" d="M115,84.47v-37a21.93,21.93,0,0,0-11-19L72,9.94A21.94,21.94,0,0,0,50,9.94L18,28.45a21.93,21.93,0,0,0-11,19v37a21.93,21.93,0,0,0,11,19L50,122A21.94,21.94,0,0,0,72,122L104,103.47A21.93,21.93,0,0,0,115,84.47Z"/><path class="cls-2" d="M31.86,82.77l10-11.18a8.26,8.26,0,0,0,0-10.78l-10-11.18"/><line class="cls-2" x1="56.82" y1="83.4" x2="89.24" y2="83.4"/><text class="cls-3" transform="translate(143.77 107.47)"><tspan class="cls-4">L</tspan><tspan class="cls-5" x="60.91" y="0">utfi </tspan><tspan class="cls-6" x="277.57" y="0">K</tspan><tspan x="342.99" y="0">umar</tspan></text></g></g></svg>